<svg width="32" height="33" viewBox="0 0 32 33" fill="none" xmlns="http://www.w3.org/2000/svg">
<g id="Frame">
<path id="Vector" d="M20.7083 25.7924C20.8012 25.8854 20.8749 25.9957 20.9252 26.1171C20.9755 26.2384 21.0013 26.3686 21.0013 26.4999C21.0013 26.6313 20.9755 26.7614 20.9252 26.8828C20.8749 27.0042 20.8012 27.1145 20.7083 27.2074C20.6154 27.3004 20.5051 27.3741 20.3837 27.4243C20.2623 27.4746 20.1322 27.5005 20.0008 27.5005C19.8694 27.5005 19.7393 27.4746 19.6179 27.4243C19.4965 27.3741 19.3862 27.3004 19.2933 27.2074L9.29329 17.2074C9.20031 17.1146 9.12655 17.0043 9.07623 16.8829C9.0259 16.7615 9 16.6314 9 16.4999C9 16.3685 9.0259 16.2384 9.07623 16.117C9.12655 15.9956 9.20031 15.8853 9.29329 15.7924L19.2933 5.79245C19.4809 5.60481 19.7354 5.49939 20.0008 5.49939C20.2662 5.49939 20.5206 5.6048 20.7083 5.79245C20.8959 5.98009 21.0013 6.23458 21.0013 6.49995C21.0013 6.76531 20.8959 7.0198 20.7083 7.20745L11.4145 16.4999L20.7083 25.7924Z" fill="black" stroke="black"/>
</g>
</svg>
