<svg width="56" height="56" viewBox="0 0 56 56" fill="none" xmlns="http://www.w3.org/2000/svg">
<path d="M49 7H7V49H49V7ZM21 39.6667H15.113V23.3333H21V39.6667ZM17.9527 20.3397C16.1537 20.3397 14.952 19.1403 14.952 17.5397C14.952 15.939 16.1513 14.7397 18.151 14.7397C19.95 14.7397 21.1517 15.939 21.1517 17.5397C21.1517 19.1403 19.9523 20.3397 17.9527 20.3397ZM42 39.6667H36.302V30.7393C36.302 28.2707 34.783 27.7013 34.2137 27.7013C33.6443 27.7013 31.745 28.0817 31.745 30.7393C31.745 31.1197 31.745 39.6667 31.745 39.6667H25.858V23.3333H31.745V25.613C32.5033 24.283 34.0223 23.3333 36.8713 23.3333C39.7203 23.3333 42 25.613 42 30.7393V39.6667Z" fill="black"/>
</svg>
