<svg width="32" height="33" viewBox="0 0 32 33" fill="none" xmlns="http://www.w3.org/2000/svg">
<g id="Frame">
<path id="Vector" d="M11.2917 7.20755C11.1988 7.11464 11.1251 7.00434 11.0748 6.88295C11.0245 6.76156 10.9987 6.63145 10.9987 6.50005C10.9987 6.36866 11.0245 6.23855 11.0748 6.11716C11.1251 5.99576 11.1988 5.88546 11.2917 5.79255C11.3846 5.69964 11.4949 5.62595 11.6163 5.57566C11.7377 5.52538 11.8678 5.4995 11.9992 5.4995C12.1306 5.4995 12.2607 5.52538 12.3821 5.57566C12.5035 5.62595 12.6138 5.69964 12.7067 5.79255L22.7067 15.7926C22.7997 15.8854 22.8734 15.9957 22.9238 16.1171C22.9741 16.2385 23 16.3686 23 16.5001C23 16.6315 22.9741 16.7616 22.9238 16.883C22.8734 17.0044 22.7997 17.1147 22.7067 17.2076L12.7067 27.2076C12.5191 27.3952 12.2646 27.5006 11.9992 27.5006C11.7338 27.5006 11.4794 27.3952 11.2917 27.2076C11.1041 27.0199 10.9987 26.7654 10.9987 26.5001C10.9987 26.2347 11.1041 25.9802 11.2917 25.7926L20.5855 16.5001L11.2917 7.20755Z" fill="black" stroke="black"/>
</g>
</svg>
