<svg width="26" height="26" viewBox="0 0 26 26" fill="none" xmlns="http://www.w3.org/2000/svg">
<path d="M25.1341 23.3656C25.2502 23.4817 25.3424 23.6196 25.4052 23.7713C25.4681 23.9231 25.5004 24.0857 25.5004 24.25C25.5004 24.4142 25.4681 24.5768 25.4052 24.7286C25.3424 24.8803 25.2502 25.0182 25.1341 25.1343C25.018 25.2505 24.8801 25.3426 24.7283 25.4055C24.5766 25.4683 24.414 25.5007 24.2497 25.5007C24.0855 25.5007 23.9228 25.4683 23.7711 25.4055C23.6194 25.3426 23.4815 25.2505 23.3653 25.1343L12.9997 14.7671L2.63409 25.1343C2.39954 25.3689 2.08142 25.5007 1.74972 25.5007C1.41801 25.5007 1.09989 25.3689 0.865343 25.1343C0.630793 24.8998 0.499023 24.5817 0.499023 24.25C0.499023 23.9183 0.630793 23.6001 0.865343 23.3656L11.2325 13L0.865343 2.63434C0.630793 2.39979 0.499023 2.08167 0.499023 1.74996C0.499023 1.41826 0.630793 1.10014 0.865343 0.865588C1.09989 0.631037 1.41801 0.499268 1.74972 0.499268C2.08142 0.499268 2.39954 0.631037 2.63409 0.865588L12.9997 11.2328L23.3653 0.865588C23.5999 0.631037 23.918 0.499268 24.2497 0.499268C24.5814 0.499268 24.8995 0.631037 25.1341 0.865588C25.3686 1.10014 25.5004 1.41826 25.5004 1.74996C25.5004 2.08167 25.3686 2.39979 25.1341 2.63434L14.7669 13L25.1341 23.3656Z" fill="black" stroke="black"/>
</svg>
